<?xml version="1.0" encoding="UTF-8" standalone="no"?>
<!DOCTYPE svg PUBLIC "-//W3C//DTD SVG 1.1//EN" "http://www.w3.org/Graphics/SVG/1.1/DTD/svg11.dtd">

<!-- Created with Vectornator (http://vectornator.io/) -->
<svg height="100%" stroke-miterlimit="10" style="fill-rule:nonzero;clip-rule:evenodd;stroke-linecap:round;stroke-linejoin:round;" version="1.1" viewBox="0 0 1024 1024" width="100%" xml:space="preserve" xmlns="http://www.w3.org/2000/svg" xmlns:vectornator="http://vectornator.io" xmlns:xlink="http://www.w3.org/1999/xlink">
<metadata>
<vectornator:setting key="IsTimeLapseWatermarkDisabled" value="false"/>
<vectornator:setting key="UndoHistoryDisabled" value="false"/>
<vectornator:setting key="VNDimensionsVisible" value="true"/>
<vectornator:setting key="VNSnapToGuides" value="true"/>
<vectornator:setting key="WDCMYKEnabledKey" value="false"/>
<vectornator:setting key="WDDisplayWhiteBackground" value="false"/>
<vectornator:setting key="WDDynamicGuides" value="false"/>
<vectornator:setting key="WDGuidesVisible" value="true"/>
<vectornator:setting key="WDIsolateActiveLayer" value="false"/>
<vectornator:setting key="WDOutlineMode" value="false"/>
<vectornator:setting key="WDRulersVisible" value="true"/>
<vectornator:setting key="WDSnapToEdges" value="false"/>
<vectornator:setting key="WDSnapToGrid" value="false"/>
<vectornator:setting key="WDSnapToPoints" value="false"/>
<vectornator:setting key="WDUnits" value="Pixels"/>
</metadata>
<defs>
<radialGradient cx="32" cy="31.5" gradientTransform="matrix(11.6325 0 0 11.6325 145.639 128.407)" gradientUnits="userSpaceOnUse" id="RadialGradient" r="31.259">
<stop offset="0" stop-color="#eed7a2"/>
<stop offset="0.106" stop-color="#f1dcab"/>
<stop offset="0.437" stop-color="#f8e8c3"/>
<stop offset="0.744" stop-color="#fcefd2"/>
<stop offset="1" stop-color="#fef2d7"/>
</radialGradient>
<linearGradient gradientTransform="matrix(-11.6325 1.42457e-15 -1.42457e-15 -11.6325 901.75 919.415)" gradientUnits="userSpaceOnUse" id="LinearGradient" x1="32.5" x2="32.5" y1="74.094" y2="10.539">
<stop offset="0" stop-color="#3cb5ea"/>
<stop offset="1" stop-color="#7ddefb"/>
</linearGradient>
<linearGradient gradientTransform="matrix(-11.6325 1.42457e-15 -1.42457e-15 -11.6325 901.75 919.415)" gradientUnits="userSpaceOnUse" id="LinearGradient_2" x1="32.5" x2="32.5" y1="55.312" y2="46.583">
<stop offset="0" stop-color="#2875e3"/>
<stop offset="0.014" stop-color="#2876e3"/>
<stop offset="0.588" stop-color="#2e88e7"/>
<stop offset="1" stop-color="#308ee8"/>
</linearGradient>
<linearGradient gradientTransform="matrix(-11.6325 1.42457e-15 -1.42457e-15 -11.6325 516.755 919.415)" gradientUnits="userSpaceOnUse" id="LinearGradient_3" x1="16" x2="16" y1="56.21" y2="47.526">
<stop offset="0" stop-color="#feaa53"/>
<stop offset="0.612" stop-color="#ffcd49"/>
<stop offset="1" stop-color="#ffde44"/>
</linearGradient>
<linearGradient gradientTransform="matrix(11.6325 0 0 11.6325 142.553 240.016)" gradientUnits="userSpaceOnUse" id="LinearGradient_4" x1="18" x2="18" y1="48.185" y2="4.866">
<stop offset="0" stop-color="#0d47a1"/>
<stop offset="0.365" stop-color="#135fba"/>
<stop offset="0.734" stop-color="#1770cc"/>
<stop offset="1" stop-color="#1976d2"/>
</linearGradient>
<linearGradient gradientTransform="matrix(17.2063 0 0 17.2063 -47.2032 -73.0125)" gradientUnits="userSpaceOnUse" id="LinearGradient_5" x1="32.5" x2="32.5" y1="74.094" y2="10.539">
<stop offset="0" stop-color="#3cb5ea"/>
<stop offset="1" stop-color="#7ddefb"/>
</linearGradient>
<filter color-interpolation-filters="sRGB" filterUnits="userSpaceOnUse" height="774.864" id="Filter" width="792.07" x="122.451" y="131.306">
<feDropShadow dx="6.48643" dy="6.73805" flood-color="#000000" flood-opacity="0.333" in="SourceGraphic" result="Shadow" stdDeviation="4.44727"/>
</filter>
<linearGradient gradientTransform="matrix(17.2063 0 0 17.2063 -47.2032 -73.0125)" gradientUnits="userSpaceOnUse" id="LinearGradient_6" x1="32.5" x2="32.5" y1="55.312" y2="46.583">
<stop offset="0" stop-color="#2875e3"/>
<stop offset="0.014" stop-color="#2876e3"/>
<stop offset="0.588" stop-color="#2e88e7"/>
<stop offset="1" stop-color="#308ee8"/>
</linearGradient>
<linearGradient gradientTransform="matrix(17.2063 0 0 17.2063 -47.2032 -73.0125)" gradientUnits="userSpaceOnUse" id="LinearGradient_7" x1="16" x2="16" y1="56.21" y2="47.526">
<stop offset="0" stop-color="#feaa53"/>
<stop offset="0.612" stop-color="#ffcd49"/>
<stop offset="1" stop-color="#ffde44"/>
</linearGradient>
<linearGradient gradientTransform="matrix(17.2063 0 0 17.2063 -47.2032 -66.1842)" gradientUnits="userSpaceOnUse" id="LinearGradient_8" x1="18" x2="18" y1="48.185" y2="4.866">
<stop offset="0" stop-color="#0d47a1"/>
<stop offset="0.365" stop-color="#135fba"/>
<stop offset="0.734" stop-color="#1770cc"/>
<stop offset="1" stop-color="#1976d2"/>
</linearGradient>
<clipPath id="TextBounds">
<rect height="167.636" width="562.872" x="306.588" y="726.895"/>
</clipPath>
</defs>
<g id="背景" vectornator:layerName="背景" visibility="hidden">
<path d="M831.955 756.561C819.101 756.561 808.69 746.15 808.69 733.296C808.69 720.442 819.101 710.031 831.955 710.031L849.404 710.031C871.796 710.031 890.118 691.71 890.118 669.317C890.118 646.925 871.796 628.603 849.404 628.603L727.263 628.603C711.198 628.603 698.182 615.587 698.182 599.522C698.182 583.458 711.198 570.441 727.263 570.441L820.323 570.441C839.516 570.441 855.22 554.737 855.22 535.544C855.22 516.35 839.516 500.646 820.323 500.646L634.203 500.646L634.203 430.851L843.588 430.851C870.749 430.851 892.677 407.261 889.873 379.552C887.442 355.403 865.654 337.792 841.389 337.792L831.955 337.792C819.101 337.792 808.69 327.381 808.69 314.527C808.69 301.673 819.101 291.262 831.955 291.262L836.108 291.262C851.323 291.262 865.178 280.316 866.701 265.182C868.446 247.768 854.825 233.099 837.771 233.099L663.284 233.099C653.653 233.099 645.836 225.282 645.836 215.651C645.836 206.019 653.653 198.202 663.284 198.202L708.151 198.202C723.366 198.202 737.22 187.256 738.744 172.122C740.489 154.708 726.867 140.04 709.814 140.04L327.606 140.04C312.391 140.04 298.536 150.986 297.013 166.12C295.268 183.533 308.889 198.202 325.943 198.202L366.656 198.202C379.51 198.202 389.921 208.613 389.921 221.467C389.921 234.321 379.51 244.732 366.656 244.732L217.633 244.732C193.367 244.732 171.591 262.343 169.148 286.492C166.345 314.201 188.272 337.792 215.434 337.792L244.515 337.792C267.001 337.792 285.229 356.02 285.229 378.505C285.229 400.991 267.001 419.219 244.515 419.219L206 419.219C181.735 419.219 159.959 436.83 157.516 460.98C154.713 488.688 176.64 512.279 203.802 512.279L401.554 512.279L401.554 640.236L215.434 640.236C196.24 640.236 180.537 655.94 180.537 675.133C180.537 694.327 196.24 710.031 215.434 710.031L215.434 710.031C228.288 710.031 238.699 720.442 238.699 733.296C238.699 746.15 228.288 756.561 215.434 756.561L194.368 756.561C170.102 756.561 148.326 774.172 145.883 798.321C143.08 826.03 165.007 849.62 192.169 849.62L829.757 849.62C854.022 849.62 875.798 832.009 878.241 807.86C881.044 780.151 859.117 756.561 831.955 756.561Z" fill="url(#RadialGradient)" fill-rule="evenodd" opacity="1" stroke="none"/>
<path d="M308.494 779.826L738.895 779.826C764.592 779.826 785.425 758.992 785.425 733.296L785.425 314.527C785.425 288.831 764.592 267.997 738.895 267.997L308.494 267.997C282.798 267.997 261.964 288.831 261.964 314.527L261.964 733.296C261.964 758.992 282.798 779.826 308.494 779.826Z" fill="url(#LinearGradient)" fill-rule="evenodd" opacity="1" stroke="none"/>
<path d="M785.425 384.321L785.425 314.527C785.425 288.831 764.592 267.997 738.895 267.997L308.494 267.997C282.798 267.997 261.964 288.831 261.964 314.527L261.964 384.321L785.425 384.321Z" fill="url(#LinearGradient_2)" fill-rule="evenodd" opacity="1" stroke="none"/>
<path d="M330.635 302.894L330.635 302.894C317.839 302.894 307.37 313.363 307.37 326.159L307.37 326.159C307.37 338.955 317.839 349.424 330.635 349.424L330.635 349.424C343.431 349.424 353.9 338.955 353.9 326.159L353.9 326.159C353.9 313.363 343.431 302.894 330.635 302.894Z" fill="url(#LinearGradient_3)" fill-rule="evenodd" opacity="1" stroke="none"/>
<path d="M328.673 426.135L375.203 426.135C388.057 426.135 398.468 436.546 398.468 449.4L398.468 495.93C398.468 508.784 388.057 519.195 375.203 519.195L328.673 519.195C315.819 519.195 305.408 508.784 305.408 495.93L305.408 449.4C305.408 436.546 315.819 426.135 328.673 426.135ZM305.408 577.358L305.408 623.887C305.408 636.741 315.819 647.152 328.673 647.152L375.203 647.152C388.057 647.152 398.468 636.741 398.468 623.887L398.468 577.358C398.468 564.504 388.057 554.093 375.203 554.093L328.673 554.093C315.819 554.093 305.408 564.504 305.408 577.358Z" fill="url(#LinearGradient_4)" fill-rule="evenodd" opacity="1" stroke="none"/>
</g>
<g id="bg" vectornator:layerName="bg"/>
<g id="Python" vectornator:layerName="Python"/>
<g id="app-name" vectornator:layerName="app name">
<path d="M830.316 133.462L193.684 133.462C155.676 133.462 124.859 164.279 124.859 202.287L124.859 821.713C124.859 859.721 155.676 890.538 193.684 890.538L830.316 890.538C868.324 890.538 899.141 859.721 899.141 821.713L899.141 202.287C899.141 164.279 868.324 133.462 830.316 133.462Z" fill="url(#LinearGradient_5)" fill-rule="evenodd" filter="url(#Filter)" stroke="none" vectornator:shadowAngle="0.804423" vectornator:shadowColor="#000000" vectornator:shadowOffset="9.35281" vectornator:shadowOpacity="0.333" vectornator:shadowRadius="8.89455"/>
<path d="M124.859 718.475L124.859 821.713C124.859 859.721 155.676 890.538 193.684 890.538L830.316 890.538C868.324 890.538 899.141 859.721 899.141 821.713L899.141 718.475L124.859 718.475Z" fill="url(#LinearGradient_6)" fill-rule="evenodd" opacity="1" stroke="none"/>
<path d="M228.097 838.919L228.097 838.919C247.024 838.919 262.509 823.433 262.509 804.506L262.509 804.506C262.509 785.579 247.024 770.094 228.097 770.094L228.097 770.094C209.17 770.094 193.684 785.579 193.684 804.506L193.684 804.506C193.684 823.433 209.17 838.919 228.097 838.919Z" fill="url(#LinearGradient_7)" fill-rule="evenodd" opacity="1" stroke="none"/>
<path d="M228.097 209.116L296.922 209.116C315.935 209.116 331.334 224.515 331.334 243.528L331.334 312.353C331.334 331.366 315.935 346.766 296.922 346.766L228.097 346.766C209.084 346.766 193.684 331.366 193.684 312.353L193.684 243.528C193.684 224.515 209.084 209.116 228.097 209.116ZM193.684 432.797L193.684 501.622C193.684 520.635 209.084 536.035 228.097 536.035L296.922 536.035C315.935 536.035 331.334 520.635 331.334 501.622L331.334 432.797C331.334 413.784 315.935 398.385 296.922 398.385L228.097 398.385C209.084 398.385 193.684 413.784 193.684 432.797Z" fill="url(#LinearGradient_8)" fill-rule="evenodd" opacity="1" stroke="none"/>
<g opacity="1">
<path d="M611.286 188.391C591.982 188.453 578.6 190.153 562.425 192.947C514.658 201.264 505.956 218.73 505.956 250.918L505.956 300.114L617.679 300.114L617.679 324.941L501.71 324.941L447.711 324.941C414.988 324.941 386.35 340.359 377.276 377.314C367.022 419.732 366.563 446.297 377.276 490.589C385.406 523.622 403.319 548.387 436.054 548.387L481.141 548.387L481.141 485.028C481.141 448.209 514.484 411.837 552.693 411.837L642.518 411.837C673.838 411.837 704.587 388.723 704.587 357.502L704.587 250.918C704.587 220.641 682.751 197.999 652.226 192.922C652.983 192.847 630.428 188.316 611.286 188.391ZM549.416 238.045C559.608 238.045 568.036 246.449 568.036 256.691C568.036 267.031 559.608 275.286 549.416 275.286C539.026 275.286 530.795 267.044 530.795 256.691C530.795 246.487 539.026 238.045 549.416 238.045Z" fill="#0277bd" fill-rule="evenodd" opacity="1" stroke="none"/>
<path d="M599.257 660.11C618.56 660.048 631.942 658.348 648.117 655.555C695.885 647.237 704.587 629.771 704.587 597.583L704.587 548.387L592.864 548.387L592.864 523.56L708.845 523.56L762.844 523.56C795.567 523.56 824.205 508.142 833.279 471.187C843.533 428.769 843.992 402.204 833.279 357.912C825.136 324.879 807.223 300.114 774.488 300.114L729.402 300.114L729.402 363.473C729.402 400.292 696.059 436.664 657.849 436.664L568.024 436.664C536.704 436.664 505.956 459.778 505.956 490.999L505.956 597.583C505.956 627.86 527.791 650.502 558.317 655.579C557.559 655.654 580.115 660.185 599.257 660.11ZM661.139 610.456C650.947 610.456 642.518 602.052 642.518 591.81C642.518 581.47 650.947 573.215 661.139 573.215C671.529 573.215 679.76 581.457 679.76 591.81C679.76 602.014 671.517 610.456 661.139 610.456Z" fill="#ffc107" fill-rule="evenodd" opacity="1" stroke="none"/>
</g>
<g fill="#ffffff" opacity="1" stroke="none">
<path clip-path="url(#TextBounds)" d="M322.113 759.087L325.428 759.087C329.1 759.087 330.936 757.489 330.936 754.293C330.936 751.097 329.1 749.499 325.428 749.499L322.113 749.499L322.113 759.087ZM322.113 779.895L312.117 779.895L312.117 741.441L328.029 741.441C332.347 741.441 335.653 742.563 337.948 744.807C340.243 747.051 341.391 750.213 341.391 754.293C341.391 758.373 340.243 761.535 337.948 763.779C335.653 766.023 332.347 767.145 328.029 767.145L322.113 767.145L322.113 779.895Z" fill-rule="evenodd"/>
<path clip-path="url(#TextBounds)" d="M355.314 776.325L342.666 753.732L353.376 753.732L360.363 767.145L367.146 753.732L377.754 753.732L356.742 792.951L346.389 792.951L355.314 776.325Z" fill-rule="evenodd"/>
<path clip-path="url(#TextBounds)" d="M396.369 749.907L396.369 779.895L386.373 779.895L386.373 749.907L378.162 749.907L378.162 741.441L404.58 741.441L404.58 749.907L396.369 749.907Z" fill-rule="evenodd"/>
<path clip-path="url(#TextBounds)" d="M408.15 737.565L417.381 737.565L417.381 757.047C418.639 755.517 419.914 754.489 421.206 753.962C422.498 753.435 424.011 753.171 425.745 753.171C429.043 753.171 431.533 754.081 433.216 755.9C434.899 757.719 435.741 760.175 435.741 763.269L435.741 779.895L426.51 779.895L426.51 766.686C426.51 765.36 426.408 764.289 426.204 763.473C426 762.657 425.66 762.028 425.184 761.586C424.368 760.872 423.382 760.515 422.226 760.515C420.662 760.515 419.463 760.983 418.63 761.918C417.797 762.853 417.381 764.187 417.381 765.921L417.381 779.895L408.15 779.895L408.15 737.565Z" fill-rule="evenodd"/>
<path clip-path="url(#TextBounds)" d="M451.245 753.732L451.245 768.471C451.245 771.701 452.809 773.316 455.937 773.316C459.065 773.316 460.629 771.701 460.629 768.471L460.629 753.732L469.86 753.732L469.86 770.256C469.86 773.792 468.695 776.444 466.366 778.212C464.037 779.98 460.561 780.864 455.937 780.864C451.313 780.864 447.836 779.98 445.507 778.212C443.178 776.444 442.014 773.792 442.014 770.256L442.014 753.732L451.245 753.732Z" fill-rule="evenodd"/>
<path clip-path="url(#TextBounds)" d="M496.992 766.89C496.992 766.074 496.839 765.301 496.533 764.57C496.227 763.839 495.802 763.201 495.258 762.657C494.714 762.113 494.085 761.68 493.371 761.357C492.657 761.034 491.875 760.872 491.025 760.872C490.209 760.872 489.444 761.025 488.73 761.331C488.016 761.637 487.395 762.062 486.868 762.606C486.341 763.15 485.916 763.788 485.593 764.519C485.27 765.25 485.109 766.023 485.109 766.839C485.109 767.655 485.262 768.42 485.568 769.134C485.874 769.848 486.299 770.469 486.843 770.996C487.387 771.523 488.024 771.948 488.755 772.271C489.486 772.594 490.26 772.755 491.076 772.755C491.892 772.755 492.657 772.602 493.371 772.296C494.085 771.99 494.705 771.565 495.232 771.021C495.759 770.477 496.184 769.848 496.507 769.134C496.83 768.42 496.992 767.672 496.992 766.89ZM485.364 737.565L485.364 756.333C487.54 754.055 490.26 752.916 493.524 752.916C495.462 752.916 497.238 753.282 498.853 754.013C500.468 754.744 501.845 755.73 502.984 756.971C504.123 758.212 505.016 759.674 505.662 761.357C506.308 763.04 506.631 764.833 506.631 766.737C506.631 768.675 506.299 770.494 505.636 772.194C504.973 773.894 504.047 775.373 502.857 776.631C501.667 777.889 500.264 778.884 498.649 779.615C497.034 780.346 495.292 780.711 493.422 780.711C490.022 780.711 487.336 779.47 485.364 776.988L485.364 779.895L476.133 779.895L476.133 737.565L485.364 737.565Z" fill-rule="evenodd"/>
<path clip-path="url(#TextBounds)" d="M322.113 826.617L325.428 826.617C329.1 826.617 330.936 825.019 330.936 821.823C330.936 818.627 329.1 817.029 325.428 817.029L322.113 817.029L322.113 826.617ZM322.113 847.425L312.117 847.425L312.117 808.971L328.029 808.971C332.347 808.971 335.653 810.093 337.948 812.337C340.243 814.581 341.391 817.743 341.391 821.823C341.391 825.903 340.243 829.065 337.948 831.309C335.653 833.553 332.347 834.675 328.029 834.675L322.113 834.675L322.113 847.425Z" fill-rule="evenodd"/>
<path clip-path="url(#TextBounds)" d="M355.314 843.855L342.666 821.262L353.376 821.262L360.363 834.675L367.146 821.262L377.754 821.262L356.742 860.481L346.389 860.481L355.314 843.855Z" fill-rule="evenodd"/>
<path clip-path="url(#TextBounds)" d="M391.779 808.971L391.779 847.425L381.783 847.425L381.783 808.971L391.779 808.971Z" fill-rule="evenodd"/>
<path clip-path="url(#TextBounds)" d="M398.97 821.262L408.201 821.262L408.201 824.577C409.459 823.047 410.734 822.019 412.026 821.492C413.318 820.965 414.831 820.701 416.565 820.701C418.401 820.701 419.973 820.999 421.282 821.594C422.591 822.189 423.705 823.03 424.623 824.118C425.371 825.002 425.881 825.988 426.153 827.076C426.425 828.164 426.561 829.405 426.561 830.799L426.561 847.425L417.33 847.425L417.33 834.216C417.33 832.924 417.236 831.879 417.049 831.08C416.862 830.281 416.531 829.643 416.055 829.167C415.647 828.759 415.188 828.47 414.678 828.3C414.168 828.13 413.624 828.045 413.046 828.045C411.482 828.045 410.283 828.513 409.45 829.448C408.617 830.383 408.201 831.717 408.201 833.451L408.201 847.425L398.97 847.425L398.97 821.262Z" fill-rule="evenodd"/>
<path clip-path="url(#TextBounds)" d="M450.174 827.994C448.474 827.11 446.808 826.668 445.176 826.668C444.326 826.668 443.637 826.838 443.11 827.178C442.583 827.518 442.32 827.977 442.32 828.555C442.32 828.861 442.362 829.108 442.447 829.295C442.532 829.482 442.719 829.66 443.008 829.83C443.297 830 443.722 830.153 444.283 830.289C444.844 830.425 445.584 830.595 446.502 830.799C449.052 831.309 450.956 832.219 452.214 833.528C453.472 834.837 454.101 836.511 454.101 838.551C454.101 840.081 453.795 841.458 453.183 842.682C452.571 843.906 451.721 844.935 450.633 845.768C449.545 846.601 448.236 847.247 446.706 847.706C445.176 848.165 443.493 848.394 441.657 848.394C438.121 848.394 434.636 847.391 431.202 845.385L434.568 838.857C437.152 840.625 439.6 841.509 441.912 841.509C442.762 841.509 443.459 841.322 444.003 840.948C444.547 840.574 444.819 840.098 444.819 839.52C444.819 839.18 444.776 838.9 444.691 838.679C444.606 838.458 444.428 838.254 444.156 838.067C443.884 837.88 443.484 837.71 442.957 837.557C442.43 837.404 441.742 837.242 440.892 837.072C438.036 836.494 436.038 835.636 434.899 834.497C433.76 833.358 433.191 831.785 433.191 829.779C433.191 828.317 433.463 827 434.007 825.827C434.551 824.654 435.333 823.659 436.353 822.843C437.373 822.027 438.605 821.398 440.05 820.956C441.495 820.514 443.102 820.293 444.87 820.293C447.76 820.293 450.565 820.854 453.285 821.976L450.174 827.994Z" fill-rule="evenodd"/>
<path clip-path="url(#TextBounds)" d="M469.809 828.963L469.809 847.425L460.578 847.425L460.578 828.963L457.518 828.963L457.518 821.262L460.578 821.262L460.578 813.408L469.809 813.408L469.809 821.262L475.062 821.262L475.062 828.963L469.809 828.963Z" fill-rule="evenodd"/>
<path clip-path="url(#TextBounds)" d="M487.608 834.267C487.608 835.117 487.761 835.908 488.067 836.639C488.373 837.37 488.789 838.007 489.316 838.551C489.843 839.095 490.472 839.52 491.203 839.826C491.934 840.132 492.725 840.285 493.575 840.285C494.391 840.285 495.164 840.132 495.895 839.826C496.626 839.52 497.255 839.095 497.782 838.551C498.309 838.007 498.734 837.378 499.057 836.664C499.38 835.95 499.542 835.185 499.542 834.369C499.542 833.553 499.38 832.78 499.057 832.049C498.734 831.318 498.309 830.68 497.782 830.136C497.255 829.592 496.626 829.167 495.895 828.861C495.164 828.555 494.391 828.402 493.575 828.402C492.725 828.402 491.934 828.555 491.203 828.861C490.472 829.167 489.843 829.592 489.316 830.136C488.789 830.68 488.373 831.301 488.067 831.998C487.761 832.695 487.608 833.451 487.608 834.267ZM499.236 821.262L508.518 821.262L508.518 847.425L499.236 847.425L499.236 844.518C497.264 847 494.595 848.241 491.229 848.241C489.325 848.241 487.574 847.893 485.976 847.196C484.378 846.499 482.984 845.521 481.794 844.263C480.604 843.005 479.677 841.526 479.014 839.826C478.351 838.126 478.02 836.273 478.02 834.267C478.02 832.397 478.343 830.621 478.989 828.938C479.635 827.255 480.536 825.784 481.692 824.526C482.848 823.268 484.225 822.274 485.823 821.543C487.421 820.812 489.189 820.446 491.127 820.446C494.391 820.446 497.094 821.585 499.236 823.863L499.236 821.262Z" fill-rule="evenodd"/>
<path clip-path="url(#TextBounds)" d="M524.022 805.095L524.022 847.425L514.791 847.425L514.791 805.095L524.022 805.095Z" fill-rule="evenodd"/>
<path clip-path="url(#TextBounds)" d="M539.577 805.095L539.577 847.425L530.346 847.425L530.346 805.095L539.577 805.095Z" fill-rule="evenodd"/>
<path clip-path="url(#TextBounds)" d="M565.026 830.544C564.72 829.252 564.091 828.215 563.139 827.433C562.187 826.651 561.031 826.26 559.671 826.26C558.243 826.26 557.078 826.634 556.177 827.382C555.276 828.13 554.707 829.184 554.469 830.544L565.026 830.544ZM554.214 835.899C554.214 839.877 556.084 841.866 559.824 841.866C561.83 841.866 563.343 841.05 564.363 839.418L573.288 839.418C571.486 845.402 566.981 848.394 559.773 848.394C557.563 848.394 555.54 848.063 553.704 847.4C551.868 846.737 550.295 845.793 548.986 844.569C547.677 843.345 546.666 841.883 545.952 840.183C545.238 838.483 544.881 836.579 544.881 834.471C544.881 832.295 545.221 830.332 545.901 828.581C546.581 826.83 547.55 825.342 548.808 824.118C550.066 822.894 551.587 821.951 553.372 821.288C555.157 820.625 557.172 820.293 559.416 820.293C561.626 820.293 563.615 820.625 565.383 821.288C567.151 821.951 568.647 822.911 569.871 824.169C571.095 825.427 572.03 826.966 572.676 828.785C573.322 830.604 573.645 832.652 573.645 834.93L573.645 835.899L554.214 835.899Z" fill-rule="evenodd"/>
<path clip-path="url(#TextBounds)" d="M578.898 821.262L588.129 821.262L588.129 825.546C589.115 823.982 590.322 822.784 591.75 821.951C593.178 821.118 594.844 820.701 596.748 820.701C596.986 820.701 597.249 820.701 597.538 820.701C597.827 820.701 598.159 820.735 598.533 820.803L598.533 829.626C597.309 829.014 595.983 828.708 594.555 828.708C592.413 828.708 590.806 829.346 589.735 830.621C588.664 831.896 588.129 833.757 588.129 836.205L588.129 847.425L578.898 847.425L578.898 821.262Z" fill-rule="evenodd"/>
<path clip-path="url(#TextBounds)" d="M630.816 838.959L633.111 838.959C634.845 838.959 636.392 838.687 637.752 838.143C639.112 837.599 640.259 836.851 641.194 835.899C642.129 834.947 642.843 833.817 643.336 832.508C643.829 831.199 644.076 829.762 644.076 828.198C644.076 826.668 643.821 825.24 643.311 823.914C642.801 822.588 642.078 821.449 641.143 820.497C640.208 819.545 639.061 818.797 637.701 818.253C636.341 817.709 634.811 817.437 633.111 817.437L630.816 817.437L630.816 838.959ZM620.82 808.971L635.61 808.971C638.228 808.971 640.684 809.498 642.979 810.552C645.274 811.606 647.28 813.009 648.997 814.76C650.714 816.511 652.066 818.551 653.052 820.88C654.038 823.209 654.531 825.648 654.531 828.198C654.531 830.714 654.046 833.137 653.077 835.466C652.108 837.795 650.765 839.843 649.048 841.611C647.331 843.379 645.325 844.79 643.03 845.844C640.735 846.898 638.262 847.425 635.61 847.425L620.82 847.425L620.82 808.971Z" fill-rule="evenodd"/>
<path clip-path="url(#TextBounds)" d="M679.164 830.544C678.858 829.252 678.229 828.215 677.277 827.433C676.325 826.651 675.169 826.26 673.809 826.26C672.381 826.26 671.216 826.634 670.315 827.382C669.414 828.13 668.845 829.184 668.607 830.544L679.164 830.544ZM668.352 835.899C668.352 839.877 670.222 841.866 673.962 841.866C675.968 841.866 677.481 841.05 678.501 839.418L687.426 839.418C685.624 845.402 681.119 848.394 673.911 848.394C671.701 848.394 669.678 848.063 667.842 847.4C666.006 846.737 664.433 845.793 663.124 844.569C661.815 843.345 660.804 841.883 660.09 840.183C659.376 838.483 659.019 836.579 659.019 834.471C659.019 832.295 659.359 830.332 660.039 828.581C660.719 826.83 661.688 825.342 662.946 824.118C664.204 822.894 665.725 821.951 667.51 821.288C669.295 820.625 671.31 820.293 673.554 820.293C675.764 820.293 677.753 820.625 679.521 821.288C681.289 821.951 682.785 822.911 684.009 824.169C685.233 825.427 686.168 826.966 686.814 828.785C687.46 830.604 687.783 832.652 687.783 834.93L687.783 835.899L668.352 835.899Z" fill-rule="evenodd"/>
<path clip-path="url(#TextBounds)" d="M710.376 827.994C708.676 827.11 707.01 826.668 705.378 826.668C704.528 826.668 703.839 826.838 703.312 827.178C702.785 827.518 702.522 827.977 702.522 828.555C702.522 828.861 702.564 829.108 702.649 829.295C702.734 829.482 702.921 829.66 703.21 829.83C703.499 830 703.924 830.153 704.485 830.289C705.046 830.425 705.786 830.595 706.704 830.799C709.254 831.309 711.158 832.219 712.416 833.528C713.674 834.837 714.303 836.511 714.303 838.551C714.303 840.081 713.997 841.458 713.385 842.682C712.773 843.906 711.923 844.935 710.835 845.768C709.747 846.601 708.438 847.247 706.908 847.706C705.378 848.165 703.695 848.394 701.859 848.394C698.323 848.394 694.838 847.391 691.404 845.385L694.77 838.857C697.354 840.625 699.802 841.509 702.114 841.509C702.964 841.509 703.661 841.322 704.205 840.948C704.749 840.574 705.021 840.098 705.021 839.52C705.021 839.18 704.978 838.9 704.893 838.679C704.808 838.458 704.63 838.254 704.358 838.067C704.086 837.88 703.686 837.71 703.159 837.557C702.632 837.404 701.944 837.242 701.094 837.072C698.238 836.494 696.24 835.636 695.101 834.497C693.962 833.358 693.393 831.785 693.393 829.779C693.393 828.317 693.665 827 694.209 825.827C694.753 824.654 695.535 823.659 696.555 822.843C697.575 822.027 698.807 821.398 700.252 820.956C701.697 820.514 703.304 820.293 705.072 820.293C707.962 820.293 710.767 820.854 713.487 821.976L710.376 827.994Z" fill-rule="evenodd"/>
<path clip-path="url(#TextBounds)" d="M728.226 805.095L728.226 830.697L737.916 821.262L750.564 821.262L737.457 833.349L751.329 847.425L738.375 847.425L728.226 836.766L728.226 847.425L718.995 847.425L718.995 805.095L728.226 805.095Z" fill-rule="evenodd"/>
<path clip-path="url(#TextBounds)" d="M764.895 828.963L764.895 847.425L755.664 847.425L755.664 828.963L752.604 828.963L752.604 821.262L755.664 821.262L755.664 813.408L764.895 813.408L764.895 821.262L770.148 821.262L770.148 828.963L764.895 828.963Z" fill-rule="evenodd"/>
<path clip-path="url(#TextBounds)" d="M782.796 834.216C782.796 835.1 782.957 835.908 783.28 836.639C783.603 837.37 784.028 838.007 784.555 838.551C785.082 839.095 785.711 839.52 786.442 839.826C787.173 840.132 787.947 840.285 788.763 840.285C789.579 840.285 790.352 840.132 791.083 839.826C791.814 839.52 792.443 839.095 792.97 838.551C793.497 838.007 793.922 837.37 794.245 836.639C794.568 835.908 794.73 835.117 794.73 834.267C794.73 833.451 794.568 832.678 794.245 831.947C793.922 831.216 793.497 830.578 792.97 830.034C792.443 829.49 791.814 829.065 791.083 828.759C790.352 828.453 789.579 828.3 788.763 828.3C787.947 828.3 787.173 828.453 786.442 828.759C785.711 829.065 785.082 829.49 784.555 830.034C784.028 830.578 783.603 831.207 783.28 831.921C782.957 832.635 782.796 833.4 782.796 834.216ZM773.055 834.114C773.055 832.176 773.446 830.366 774.228 828.683C775.01 827 776.098 825.538 777.492 824.297C778.886 823.056 780.543 822.078 782.464 821.364C784.385 820.65 786.485 820.293 788.763 820.293C791.007 820.293 793.089 820.642 795.01 821.339C796.931 822.036 798.597 823.005 800.008 824.246C801.419 825.487 802.516 826.966 803.298 828.683C804.08 830.4 804.471 832.295 804.471 834.369C804.471 836.443 804.071 838.339 803.272 840.056C802.473 841.773 801.377 843.252 799.983 844.493C798.589 845.734 796.914 846.694 794.959 847.374C793.004 848.054 790.888 848.394 788.61 848.394C786.366 848.394 784.292 848.054 782.388 847.374C780.484 846.694 778.843 845.725 777.466 844.467C776.089 843.209 775.01 841.705 774.228 839.954C773.446 838.203 773.055 836.256 773.055 834.114Z" fill-rule="evenodd"/>
<path clip-path="url(#TextBounds)" d="M830.634 834.42C830.634 833.604 830.489 832.831 830.2 832.1C829.911 831.369 829.495 830.731 828.951 830.187C828.407 829.643 827.769 829.21 827.038 828.887C826.307 828.564 825.517 828.402 824.667 828.402C823.851 828.402 823.086 828.555 822.372 828.861C821.658 829.167 821.037 829.592 820.51 830.136C819.983 830.68 819.558 831.318 819.235 832.049C818.912 832.78 818.751 833.553 818.751 834.369C818.751 835.185 818.904 835.95 819.21 836.664C819.516 837.378 819.941 837.999 820.485 838.526C821.029 839.053 821.666 839.478 822.397 839.801C823.128 840.124 823.902 840.285 824.718 840.285C825.534 840.285 826.299 840.132 827.013 839.826C827.727 839.52 828.347 839.095 828.874 838.551C829.401 838.007 829.826 837.378 830.149 836.664C830.472 835.95 830.634 835.202 830.634 834.42ZM819.006 860.481L809.775 860.481L809.775 821.262L819.006 821.262L819.006 824.169C820.978 821.687 823.664 820.446 827.064 820.446C828.934 820.446 830.676 820.812 832.291 821.543C833.906 822.274 835.309 823.268 836.499 824.526C837.689 825.784 838.615 827.263 839.278 828.963C839.941 830.663 840.273 832.482 840.273 834.42C840.273 836.358 839.941 838.16 839.278 839.826C838.615 841.492 837.697 842.954 836.524 844.212C835.351 845.47 833.966 846.456 832.368 847.17C830.77 847.884 829.036 848.241 827.166 848.241C823.902 848.241 821.182 847.119 819.006 844.875L819.006 860.481Z" fill-rule="evenodd"/>
</g>
</g>
</svg>
