<?xml version="1.0" encoding="UTF-8" standalone="no"?>
<!DOCTYPE svg PUBLIC "-//W3C//DTD SVG 1.1//EN" "http://www.w3.org/Graphics/SVG/1.1/DTD/svg11.dtd">

<!-- Created with Vectornator (http://vectornator.io/) -->
<svg height="100%" stroke-miterlimit="10" style="fill-rule:nonzero;clip-rule:evenodd;stroke-linecap:round;stroke-linejoin:round;" version="1.1" viewBox="0 0 1024 1024" width="100%" xml:space="preserve" xmlns="http://www.w3.org/2000/svg" xmlns:vectornator="http://vectornator.io" xmlns:xlink="http://www.w3.org/1999/xlink">
<metadata>
<vectornator:setting key="IsTimeLapseWatermarkDisabled" value="false"/>
<vectornator:setting key="UndoHistoryDisabled" value="false"/>
<vectornator:setting key="VNDimensionsVisible" value="true"/>
<vectornator:setting key="VNSnapToGuides" value="true"/>
<vectornator:setting key="WDCMYKEnabledKey" value="false"/>
<vectornator:setting key="WDDisplayWhiteBackground" value="false"/>
<vectornator:setting key="WDDynamicGuides" value="false"/>
<vectornator:setting key="WDGuidesVisible" value="true"/>
<vectornator:setting key="WDIsolateActiveLayer" value="false"/>
<vectornator:setting key="WDOutlineMode" value="false"/>
<vectornator:setting key="WDRulersVisible" value="true"/>
<vectornator:setting key="WDSnapToEdges" value="false"/>
<vectornator:setting key="WDSnapToGrid" value="false"/>
<vectornator:setting key="WDSnapToPoints" value="false"/>
<vectornator:setting key="WDUnits" value="Pixels"/>
</metadata>
<defs>
<radialGradient cx="32" cy="31.5" gradientTransform="matrix(11.6325 0 0 11.6325 145.639 128.407)" gradientUnits="userSpaceOnUse" id="RadialGradient" r="31.259">
<stop offset="0" stop-color="#eed7a2"/>
<stop offset="0.106" stop-color="#f1dcab"/>
<stop offset="0.437" stop-color="#f8e8c3"/>
<stop offset="0.744" stop-color="#fcefd2"/>
<stop offset="1" stop-color="#fef2d7"/>
</radialGradient>
<linearGradient gradientTransform="matrix(-11.6325 1.42457e-15 -1.42457e-15 -11.6325 901.75 919.415)" gradientUnits="userSpaceOnUse" id="LinearGradient" x1="32.5" x2="32.5" y1="74.094" y2="10.539">
<stop offset="0" stop-color="#3cb5ea"/>
<stop offset="1" stop-color="#7ddefb"/>
</linearGradient>
<linearGradient gradientTransform="matrix(-11.6325 1.42457e-15 -1.42457e-15 -11.6325 901.75 919.415)" gradientUnits="userSpaceOnUse" id="LinearGradient_2" x1="32.5" x2="32.5" y1="55.312" y2="46.583">
<stop offset="0" stop-color="#2875e3"/>
<stop offset="0.014" stop-color="#2876e3"/>
<stop offset="0.588" stop-color="#2e88e7"/>
<stop offset="1" stop-color="#308ee8"/>
</linearGradient>
<linearGradient gradientTransform="matrix(-11.6325 1.42457e-15 -1.42457e-15 -11.6325 516.755 919.415)" gradientUnits="userSpaceOnUse" id="LinearGradient_3" x1="16" x2="16" y1="56.21" y2="47.526">
<stop offset="0" stop-color="#feaa53"/>
<stop offset="0.612" stop-color="#ffcd49"/>
<stop offset="1" stop-color="#ffde44"/>
</linearGradient>
<linearGradient gradientTransform="matrix(11.6325 0 0 11.6325 142.553 240.016)" gradientUnits="userSpaceOnUse" id="LinearGradient_4" x1="18" x2="18" y1="48.185" y2="4.866">
<stop offset="0" stop-color="#0d47a1"/>
<stop offset="0.365" stop-color="#135fba"/>
<stop offset="0.734" stop-color="#1770cc"/>
<stop offset="1" stop-color="#1976d2"/>
</linearGradient>
<linearGradient gradientTransform="matrix(20.1587 0 0 20.1587 -143.158 -173.396)" gradientUnits="userSpaceOnUse" id="LinearGradient_5" x1="32.5" x2="32.5" y1="74.094" y2="10.539">
<stop offset="0" stop-color="#3cb5ea"/>
<stop offset="1" stop-color="#7ddefb"/>
</linearGradient>
<filter color-interpolation-filters="sRGB" filterUnits="userSpaceOnUse" height="904.773" id="Filter" width="924.931" x="56.0207" y="66.3517">
<feDropShadow dx="6.48643" dy="6.73805" flood-color="#000000" flood-opacity="0.333" in="SourceGraphic" result="Shadow" stdDeviation="4.44727"/>
</filter>
<linearGradient gradientTransform="matrix(20.1587 0 0 20.1587 -143.158 -173.396)" gradientUnits="userSpaceOnUse" id="LinearGradient_6" x1="32.5" x2="32.5" y1="55.312" y2="46.583">
<stop offset="0" stop-color="#2875e3"/>
<stop offset="0.014" stop-color="#2876e3"/>
<stop offset="0.588" stop-color="#2e88e7"/>
<stop offset="1" stop-color="#308ee8"/>
</linearGradient>
<linearGradient gradientTransform="matrix(20.1587 0 0 20.1587 -143.158 -173.396)" gradientUnits="userSpaceOnUse" id="LinearGradient_7" x1="16" x2="16" y1="56.21" y2="47.526">
<stop offset="0" stop-color="#feaa53"/>
<stop offset="0.612" stop-color="#ffcd49"/>
<stop offset="1" stop-color="#ffde44"/>
</linearGradient>
<linearGradient gradientTransform="matrix(20.1587 0 0 20.1587 -143.158 -165.396)" gradientUnits="userSpaceOnUse" id="LinearGradient_8" x1="18" x2="18" y1="48.185" y2="4.866">
<stop offset="0" stop-color="#0d47a1"/>
<stop offset="0.365" stop-color="#135fba"/>
<stop offset="0.734" stop-color="#1770cc"/>
<stop offset="1" stop-color="#1976d2"/>
</linearGradient>
<clipPath id="TextBounds">
<rect height="151.753" width="584.634" x="271.34" y="782.372"/>
</clipPath>
</defs>
<g id="背景" vectornator:layerName="背景" visibility="hidden">
<path d="M831.955 756.561C819.101 756.561 808.69 746.15 808.69 733.296C808.69 720.442 819.101 710.031 831.955 710.031L849.404 710.031C871.796 710.031 890.118 691.71 890.118 669.317C890.118 646.925 871.796 628.603 849.404 628.603L727.263 628.603C711.198 628.603 698.182 615.587 698.182 599.522C698.182 583.458 711.198 570.441 727.263 570.441L820.323 570.441C839.516 570.441 855.22 554.737 855.22 535.544C855.22 516.35 839.516 500.646 820.323 500.646L634.203 500.646L634.203 430.851L843.588 430.851C870.749 430.851 892.677 407.261 889.873 379.552C887.442 355.403 865.654 337.792 841.389 337.792L831.955 337.792C819.101 337.792 808.69 327.381 808.69 314.527C808.69 301.673 819.101 291.262 831.955 291.262L836.108 291.262C851.323 291.262 865.178 280.316 866.701 265.182C868.446 247.768 854.825 233.099 837.771 233.099L663.284 233.099C653.653 233.099 645.836 225.282 645.836 215.651C645.836 206.019 653.653 198.202 663.284 198.202L708.151 198.202C723.366 198.202 737.22 187.256 738.744 172.122C740.489 154.708 726.867 140.04 709.814 140.04L327.606 140.04C312.391 140.04 298.536 150.986 297.013 166.12C295.268 183.533 308.889 198.202 325.943 198.202L366.656 198.202C379.51 198.202 389.921 208.613 389.921 221.467C389.921 234.321 379.51 244.732 366.656 244.732L217.633 244.732C193.367 244.732 171.591 262.343 169.148 286.492C166.345 314.201 188.272 337.792 215.434 337.792L244.515 337.792C267.001 337.792 285.229 356.02 285.229 378.505C285.229 400.991 267.001 419.219 244.515 419.219L206 419.219C181.735 419.219 159.959 436.83 157.516 460.98C154.713 488.688 176.64 512.279 203.802 512.279L401.554 512.279L401.554 640.236L215.434 640.236C196.24 640.236 180.537 655.94 180.537 675.133C180.537 694.327 196.24 710.031 215.434 710.031L215.434 710.031C228.288 710.031 238.699 720.442 238.699 733.296C238.699 746.15 228.288 756.561 215.434 756.561L194.368 756.561C170.102 756.561 148.326 774.172 145.883 798.321C143.08 826.03 165.007 849.62 192.169 849.62L829.757 849.62C854.022 849.62 875.798 832.009 878.241 807.86C881.044 780.151 859.117 756.561 831.955 756.561Z" fill="url(#RadialGradient)" fill-rule="evenodd" opacity="1" stroke="none"/>
<path d="M308.494 779.826L738.895 779.826C764.592 779.826 785.425 758.992 785.425 733.296L785.425 314.527C785.425 288.831 764.592 267.997 738.895 267.997L308.494 267.997C282.798 267.997 261.964 288.831 261.964 314.527L261.964 733.296C261.964 758.992 282.798 779.826 308.494 779.826Z" fill="url(#LinearGradient)" fill-rule="evenodd" opacity="1" stroke="none"/>
<path d="M785.425 384.321L785.425 314.527C785.425 288.831 764.592 267.997 738.895 267.997L308.494 267.997C282.798 267.997 261.964 288.831 261.964 314.527L261.964 384.321L785.425 384.321Z" fill="url(#LinearGradient_2)" fill-rule="evenodd" opacity="1" stroke="none"/>
<path d="M330.635 302.894L330.635 302.894C317.839 302.894 307.37 313.363 307.37 326.159L307.37 326.159C307.37 338.955 317.839 349.424 330.635 349.424L330.635 349.424C343.431 349.424 353.9 338.955 353.9 326.159L353.9 326.159C353.9 313.363 343.431 302.894 330.635 302.894Z" fill="url(#LinearGradient_3)" fill-rule="evenodd" opacity="1" stroke="none"/>
<path d="M328.673 426.135L375.203 426.135C388.057 426.135 398.468 436.546 398.468 449.4L398.468 495.93C398.468 508.784 388.057 519.195 375.203 519.195L328.673 519.195C315.819 519.195 305.408 508.784 305.408 495.93L305.408 449.4C305.408 436.546 315.819 426.135 328.673 426.135ZM305.408 577.358L305.408 623.887C305.408 636.741 315.819 647.152 328.673 647.152L375.203 647.152C388.057 647.152 398.468 636.741 398.468 623.887L398.468 577.358C398.468 564.504 388.057 554.093 375.203 554.093L328.673 554.093C315.819 554.093 305.408 564.504 305.408 577.358Z" fill="url(#LinearGradient_4)" fill-rule="evenodd" opacity="1" stroke="none"/>
</g>
<g id="bg" vectornator:layerName="bg">
<path d="M884.936 68.5082L139.064 68.5082C94.5331 68.5082 58.4288 104.612 58.4288 149.143L58.4288 874.857C58.4288 919.388 94.5331 955.492 139.064 955.492L884.936 955.492C929.467 955.492 965.571 919.388 965.571 874.857L965.571 149.143C965.571 104.612 929.467 68.5082 884.936 68.5082Z" fill="url(#LinearGradient_5)" fill-rule="evenodd" filter="url(#Filter)" stroke="none" vectornator:shadowAngle="0.804423" vectornator:shadowColor="#000000" vectornator:shadowOffset="9.35281" vectornator:shadowOpacity="0.333" vectornator:shadowRadius="8.89455"/>
<path d="M58.4288 753.905L58.4288 874.857C58.4288 919.388 94.5331 955.492 139.064 955.492L884.936 955.492C929.467 955.492 965.571 919.388 965.571 874.857L965.571 753.905L58.4288 753.905Z" fill="url(#LinearGradient_6)" fill-rule="evenodd" opacity="1" stroke="none"/>
<path d="M179.381 895.016L179.381 895.016C201.556 895.016 219.699 876.873 219.699 854.698L219.699 854.698C219.699 832.524 201.556 814.381 179.381 814.381L179.381 814.381C157.207 814.381 139.064 832.524 139.064 854.698L139.064 854.698C139.064 876.873 157.207 895.016 179.381 895.016Z" fill="url(#LinearGradient_7)" fill-rule="evenodd" opacity="1" stroke="none"/>
<path d="M179.381 157.143L260.016 157.143C282.291 157.143 300.333 175.185 300.333 197.461L300.333 278.095C300.333 300.371 282.291 318.413 260.016 318.413L179.381 318.413C157.106 318.413 139.064 300.371 139.064 278.095L139.064 197.461C139.064 175.185 157.106 157.143 179.381 157.143ZM139.064 419.206L139.064 499.841C139.064 522.117 157.106 540.159 179.381 540.159L260.016 540.159C282.291 540.159 300.333 522.117 300.333 499.841L300.333 419.206C300.333 396.931 282.291 378.889 260.016 378.889L179.381 378.889C157.106 378.889 139.064 396.931 139.064 419.206Z" fill="url(#LinearGradient_8)" fill-rule="evenodd" opacity="1" stroke="none"/>
</g>
<g id="Python" vectornator:layerName="Python">
<g opacity="1">
<path d="M628.322 132.862C605.707 132.934 590.029 134.927 571.078 138.199C515.114 147.944 504.919 168.407 504.919 206.119L504.919 263.756L635.812 263.756L635.812 292.843L499.945 292.843L436.679 292.843C398.342 292.843 364.789 310.907 354.158 354.203C342.145 403.899 341.606 435.023 354.158 486.915C363.684 525.616 384.671 554.631 423.023 554.631L475.845 554.631L475.845 480.4C475.845 437.263 514.91 394.65 559.676 394.65L664.915 394.65C701.608 394.65 737.633 367.569 737.633 330.992L737.633 206.119C737.633 170.646 712.051 144.119 676.288 138.17C677.175 138.083 650.749 132.774 628.322 132.862ZM555.836 191.037C567.777 191.037 577.652 200.883 577.652 212.882C577.652 224.997 567.777 234.668 555.836 234.668C543.663 234.668 534.021 225.011 534.021 212.882C534.021 200.927 543.663 191.037 555.836 191.037Z" fill="#0277bd" fill-rule="evenodd" opacity="1" stroke="none"/>
<path d="M614.229 685.525C636.845 685.452 652.523 683.46 671.474 680.187C727.438 670.443 737.633 649.98 737.633 612.268L737.633 554.631L606.739 554.631L606.739 525.544L742.622 525.544L805.887 525.544C844.225 525.544 877.777 507.48 888.409 464.183C900.422 414.487 900.96 383.364 888.409 331.471C878.868 292.77 857.881 263.756 819.529 263.756L766.706 263.756L766.706 337.987C766.706 381.124 727.642 423.737 682.876 423.737L577.637 423.737C540.943 423.737 504.918 450.818 504.918 487.395L504.918 612.268C504.918 647.74 530.501 674.268 566.264 680.217C565.377 680.304 591.803 685.612 614.229 685.525ZM686.73 627.35C674.79 627.35 664.915 617.504 664.915 605.505C664.915 593.39 674.79 583.719 686.73 583.719C698.903 583.719 708.546 593.376 708.546 605.505C708.546 617.46 698.889 627.35 686.73 627.35Z" fill="#ffc107" fill-rule="evenodd" opacity="1" stroke="none"/>
</g>
</g>
<g id="app-name" vectornator:layerName="app name">
<g fill="#ffffff" opacity="1" stroke="none">
<path clip-path="url(#TextBounds)" d="M286.865 814.564L290.18 814.564C293.852 814.564 295.688 812.966 295.688 809.77C295.688 806.574 293.852 804.976 290.18 804.976L286.865 804.976L286.865 814.564ZM286.865 835.372L276.869 835.372L276.869 796.918L292.781 796.918C297.099 796.918 300.406 798.04 302.701 800.284C304.996 802.528 306.143 805.69 306.143 809.77C306.143 813.85 304.996 817.012 302.701 819.256C300.406 821.5 297.099 822.622 292.781 822.622L286.865 822.622L286.865 835.372Z" fill-rule="evenodd"/>
<path clip-path="url(#TextBounds)" d="M320.066 831.802L307.418 809.209L318.128 809.209L325.115 822.622L331.898 809.209L342.506 809.209L321.494 848.428L311.141 848.428L320.066 831.802Z" fill-rule="evenodd"/>
<path clip-path="url(#TextBounds)" d="M361.121 805.384L361.121 835.372L351.125 835.372L351.125 805.384L342.914 805.384L342.914 796.918L369.332 796.918L369.332 805.384L361.121 805.384Z" fill-rule="evenodd"/>
<path clip-path="url(#TextBounds)" d="M372.902 793.042L382.133 793.042L382.133 812.524C383.391 810.994 384.666 809.966 385.958 809.439C387.25 808.912 388.763 808.648 390.497 808.648C393.795 808.648 396.286 809.558 397.969 811.377C399.652 813.196 400.493 815.652 400.493 818.746L400.493 835.372L391.262 835.372L391.262 822.163C391.262 820.837 391.16 819.766 390.956 818.95C390.752 818.134 390.412 817.505 389.936 817.063C389.12 816.349 388.134 815.992 386.978 815.992C385.414 815.992 384.216 816.46 383.383 817.395C382.55 818.33 382.133 819.664 382.133 821.398L382.133 835.372L372.902 835.372L372.902 793.042Z" fill-rule="evenodd"/>
<path clip-path="url(#TextBounds)" d="M415.997 809.209L415.997 823.948C415.997 827.178 417.561 828.793 420.689 828.793C423.817 828.793 425.381 827.178 425.381 823.948L425.381 809.209L434.612 809.209L434.612 825.733C434.612 829.269 433.448 831.921 431.119 833.689C428.79 835.457 425.313 836.341 420.689 836.341C416.065 836.341 412.589 835.457 410.26 833.689C407.931 831.921 406.766 829.269 406.766 825.733L406.766 809.209L415.997 809.209Z" fill-rule="evenodd"/>
<path clip-path="url(#TextBounds)" d="M461.744 822.367C461.744 821.551 461.591 820.778 461.285 820.047C460.979 819.316 460.554 818.678 460.01 818.134C459.466 817.59 458.837 817.157 458.123 816.834C457.409 816.511 456.627 816.349 455.777 816.349C454.961 816.349 454.196 816.502 453.482 816.808C452.768 817.114 452.148 817.539 451.621 818.083C451.094 818.627 450.669 819.265 450.346 819.996C450.023 820.727 449.861 821.5 449.861 822.316C449.861 823.132 450.014 823.897 450.32 824.611C450.626 825.325 451.051 825.946 451.595 826.473C452.139 827 452.777 827.425 453.508 827.748C454.239 828.071 455.012 828.232 455.828 828.232C456.644 828.232 457.409 828.079 458.123 827.773C458.837 827.467 459.458 827.042 459.985 826.498C460.512 825.954 460.937 825.325 461.26 824.611C461.583 823.897 461.744 823.149 461.744 822.367ZM450.116 793.042L450.116 811.81C452.292 809.532 455.012 808.393 458.276 808.393C460.214 808.393 461.991 808.759 463.606 809.49C465.221 810.221 466.598 811.207 467.737 812.448C468.876 813.689 469.768 815.151 470.414 816.834C471.06 818.517 471.383 820.31 471.383 822.214C471.383 824.152 471.052 825.971 470.389 827.671C469.726 829.371 468.799 830.85 467.609 832.108C466.419 833.366 465.017 834.361 463.402 835.092C461.787 835.823 460.044 836.188 458.174 836.188C454.774 836.188 452.088 834.947 450.116 832.465L450.116 835.372L440.885 835.372L440.885 793.042L450.116 793.042Z" fill-rule="evenodd"/>
<path clip-path="url(#TextBounds)" d="M286.865 882.094L290.18 882.094C293.852 882.094 295.688 880.496 295.688 877.3C295.688 874.104 293.852 872.506 290.18 872.506L286.865 872.506L286.865 882.094ZM286.865 902.902L276.869 902.902L276.869 864.448L292.781 864.448C297.099 864.448 300.406 865.57 302.701 867.814C304.996 870.058 306.143 873.22 306.143 877.3C306.143 881.38 304.996 884.542 302.701 886.786C300.406 889.03 297.099 890.152 292.781 890.152L286.865 890.152L286.865 902.902Z" fill-rule="evenodd"/>
<path clip-path="url(#TextBounds)" d="M320.066 899.332L307.418 876.739L318.128 876.739L325.115 890.152L331.898 876.739L342.506 876.739L321.494 915.958L311.141 915.958L320.066 899.332Z" fill-rule="evenodd"/>
<path clip-path="url(#TextBounds)" d="M356.531 864.448L356.531 902.902L346.535 902.902L346.535 864.448L356.531 864.448Z" fill-rule="evenodd"/>
<path clip-path="url(#TextBounds)" d="M363.722 876.739L372.953 876.739L372.953 880.054C374.211 878.524 375.486 877.496 376.778 876.969C378.07 876.442 379.583 876.178 381.317 876.178C383.153 876.178 384.726 876.476 386.035 877.071C387.344 877.666 388.457 878.507 389.375 879.595C390.123 880.479 390.633 881.465 390.905 882.553C391.177 883.641 391.313 884.882 391.313 886.276L391.313 902.902L382.082 902.902L382.082 889.693C382.082 888.401 381.989 887.356 381.802 886.557C381.615 885.758 381.283 885.12 380.807 884.644C380.399 884.236 379.94 883.947 379.43 883.777C378.92 883.607 378.376 883.522 377.798 883.522C376.234 883.522 375.036 883.99 374.203 884.925C373.37 885.86 372.953 887.194 372.953 888.928L372.953 902.902L363.722 902.902L363.722 876.739Z" fill-rule="evenodd"/>
<path clip-path="url(#TextBounds)" d="M414.926 883.471C413.226 882.587 411.56 882.145 409.928 882.145C409.078 882.145 408.39 882.315 407.863 882.655C407.336 882.995 407.072 883.454 407.072 884.032C407.072 884.338 407.115 884.585 407.2 884.772C407.285 884.959 407.472 885.137 407.761 885.307C408.05 885.477 408.475 885.63 409.036 885.766C409.597 885.902 410.336 886.072 411.254 886.276C413.804 886.786 415.708 887.696 416.966 889.005C418.224 890.314 418.853 891.988 418.853 894.028C418.853 895.558 418.547 896.935 417.935 898.159C417.323 899.383 416.473 900.412 415.385 901.245C414.297 902.078 412.988 902.724 411.458 903.183C409.928 903.642 408.245 903.871 406.409 903.871C402.873 903.871 399.388 902.868 395.954 900.862L399.32 894.334C401.904 896.102 404.352 896.986 406.664 896.986C407.514 896.986 408.211 896.799 408.755 896.425C409.299 896.051 409.571 895.575 409.571 894.997C409.571 894.657 409.529 894.377 409.444 894.156C409.359 893.935 409.18 893.731 408.908 893.544C408.636 893.357 408.237 893.187 407.71 893.034C407.183 892.881 406.494 892.719 405.644 892.549C402.788 891.971 400.791 891.113 399.652 889.974C398.513 888.835 397.943 887.262 397.943 885.256C397.943 883.794 398.215 882.477 398.759 881.304C399.303 880.131 400.085 879.136 401.105 878.32C402.125 877.504 403.358 876.875 404.803 876.433C406.248 875.991 407.854 875.77 409.622 875.77C412.512 875.77 415.317 876.331 418.037 877.453L414.926 883.471Z" fill-rule="evenodd"/>
<path clip-path="url(#TextBounds)" d="M434.561 884.44L434.561 902.902L425.33 902.902L425.33 884.44L422.27 884.44L422.27 876.739L425.33 876.739L425.33 868.885L434.561 868.885L434.561 876.739L439.814 876.739L439.814 884.44L434.561 884.44Z" fill-rule="evenodd"/>
<path clip-path="url(#TextBounds)" d="M452.36 889.744C452.36 890.594 452.513 891.385 452.819 892.116C453.125 892.847 453.542 893.484 454.069 894.028C454.596 894.572 455.225 894.997 455.956 895.303C456.687 895.609 457.477 895.762 458.327 895.762C459.143 895.762 459.917 895.609 460.648 895.303C461.379 894.997 462.008 894.572 462.535 894.028C463.062 893.484 463.487 892.855 463.81 892.141C464.133 891.427 464.294 890.662 464.294 889.846C464.294 889.03 464.133 888.257 463.81 887.526C463.487 886.795 463.062 886.157 462.535 885.613C462.008 885.069 461.379 884.644 460.648 884.338C459.917 884.032 459.143 883.879 458.327 883.879C457.477 883.879 456.687 884.032 455.956 884.338C455.225 884.644 454.596 885.069 454.069 885.613C453.542 886.157 453.125 886.778 452.819 887.475C452.513 888.172 452.36 888.928 452.36 889.744ZM463.988 876.739L473.27 876.739L473.27 902.902L463.988 902.902L463.988 899.995C462.016 902.477 459.347 903.718 455.981 903.718C454.077 903.718 452.326 903.37 450.728 902.673C449.13 901.976 447.736 900.998 446.546 899.74C445.356 898.482 444.43 897.003 443.767 895.303C443.104 893.603 442.772 891.75 442.772 889.744C442.772 887.874 443.095 886.098 443.741 884.415C444.387 882.732 445.288 881.261 446.444 880.003C447.6 878.745 448.977 877.751 450.575 877.02C452.173 876.289 453.941 875.923 455.879 875.923C459.143 875.923 461.846 877.062 463.988 879.34L463.988 876.739Z" fill-rule="evenodd"/>
<path clip-path="url(#TextBounds)" d="M488.774 860.572L488.774 902.902L479.543 902.902L479.543 860.572L488.774 860.572Z" fill-rule="evenodd"/>
<path clip-path="url(#TextBounds)" d="M504.329 860.572L504.329 902.902L495.098 902.902L495.098 860.572L504.329 860.572Z" fill-rule="evenodd"/>
<path clip-path="url(#TextBounds)" d="M529.778 886.021C529.472 884.729 528.843 883.692 527.891 882.91C526.939 882.128 525.783 881.737 524.423 881.737C522.995 881.737 521.831 882.111 520.93 882.859C520.029 883.607 519.459 884.661 519.221 886.021L529.778 886.021ZM518.966 891.376C518.966 895.354 520.836 897.343 524.576 897.343C526.582 897.343 528.095 896.527 529.115 894.895L538.04 894.895C536.238 900.879 531.733 903.871 524.525 903.871C522.315 903.871 520.292 903.54 518.456 902.877C516.62 902.214 515.048 901.27 513.739 900.046C512.43 898.822 511.418 897.36 510.704 895.66C509.99 893.96 509.633 892.056 509.633 889.948C509.633 887.772 509.973 885.809 510.653 884.058C511.333 882.307 512.302 880.819 513.56 879.595C514.818 878.371 516.34 877.428 518.125 876.765C519.91 876.102 521.924 875.77 524.168 875.77C526.378 875.77 528.367 876.102 530.135 876.765C531.903 877.428 533.399 878.388 534.623 879.646C535.847 880.904 536.782 882.443 537.428 884.262C538.074 886.081 538.397 888.129 538.397 890.407L538.397 891.376L518.966 891.376Z" fill-rule="evenodd"/>
<path clip-path="url(#TextBounds)" d="M543.65 876.739L552.881 876.739L552.881 881.023C553.867 879.459 555.074 878.261 556.502 877.428C557.93 876.595 559.596 876.178 561.5 876.178C561.738 876.178 562.002 876.178 562.291 876.178C562.58 876.178 562.911 876.212 563.285 876.28L563.285 885.103C562.061 884.491 560.735 884.185 559.307 884.185C557.165 884.185 555.559 884.823 554.488 886.098C553.417 887.373 552.881 889.234 552.881 891.682L552.881 902.902L543.65 902.902L543.65 876.739Z" fill-rule="evenodd"/>
<path clip-path="url(#TextBounds)" d="M595.568 894.436L597.863 894.436C599.597 894.436 601.144 894.164 602.504 893.62C603.864 893.076 605.012 892.328 605.947 891.376C606.882 890.424 607.596 889.294 608.089 887.985C608.582 886.676 608.828 885.239 608.828 883.675C608.828 882.145 608.573 880.717 608.063 879.391C607.553 878.065 606.831 876.926 605.896 875.974C604.961 875.022 603.813 874.274 602.453 873.73C601.093 873.186 599.563 872.914 597.863 872.914L595.568 872.914L595.568 894.436ZM585.572 864.448L600.362 864.448C602.98 864.448 605.437 864.975 607.732 866.029C610.027 867.083 612.033 868.486 613.75 870.237C615.467 871.988 616.818 874.028 617.804 876.357C618.79 878.686 619.283 881.125 619.283 883.675C619.283 886.191 618.799 888.614 617.83 890.943C616.861 893.272 615.518 895.32 613.801 897.088C612.084 898.856 610.078 900.267 607.783 901.321C605.488 902.375 603.014 902.902 600.362 902.902L585.572 902.902L585.572 864.448Z" fill-rule="evenodd"/>
<path clip-path="url(#TextBounds)" d="M643.916 886.021C643.61 884.729 642.981 883.692 642.029 882.91C641.077 882.128 639.921 881.737 638.561 881.737C637.133 881.737 635.969 882.111 635.068 882.859C634.167 883.607 633.597 884.661 633.359 886.021L643.916 886.021ZM633.104 891.376C633.104 895.354 634.974 897.343 638.714 897.343C640.72 897.343 642.233 896.527 643.253 894.895L652.178 894.895C650.376 900.879 645.871 903.871 638.663 903.871C636.453 903.871 634.43 903.54 632.594 902.877C630.758 902.214 629.186 901.27 627.877 900.046C626.568 898.822 625.556 897.36 624.842 895.66C624.128 893.96 623.771 892.056 623.771 889.948C623.771 887.772 624.111 885.809 624.791 884.058C625.471 882.307 626.44 880.819 627.698 879.595C628.956 878.371 630.478 877.428 632.263 876.765C634.048 876.102 636.062 875.77 638.306 875.77C640.516 875.77 642.505 876.102 644.273 876.765C646.041 877.428 647.537 878.388 648.761 879.646C649.985 880.904 650.92 882.443 651.566 884.262C652.212 886.081 652.535 888.129 652.535 890.407L652.535 891.376L633.104 891.376Z" fill-rule="evenodd"/>
<path clip-path="url(#TextBounds)" d="M675.128 883.471C673.428 882.587 671.762 882.145 670.13 882.145C669.28 882.145 668.592 882.315 668.065 882.655C667.538 882.995 667.274 883.454 667.274 884.032C667.274 884.338 667.317 884.585 667.402 884.772C667.487 884.959 667.674 885.137 667.963 885.307C668.252 885.477 668.677 885.63 669.238 885.766C669.799 885.902 670.538 886.072 671.456 886.276C674.006 886.786 675.91 887.696 677.168 889.005C678.426 890.314 679.055 891.988 679.055 894.028C679.055 895.558 678.749 896.935 678.137 898.159C677.525 899.383 676.675 900.412 675.587 901.245C674.499 902.078 673.19 902.724 671.66 903.183C670.13 903.642 668.447 903.871 666.611 903.871C663.075 903.871 659.59 902.868 656.156 900.862L659.522 894.334C662.106 896.102 664.554 896.986 666.866 896.986C667.716 896.986 668.413 896.799 668.957 896.425C669.501 896.051 669.773 895.575 669.773 894.997C669.773 894.657 669.731 894.377 669.646 894.156C669.561 893.935 669.382 893.731 669.11 893.544C668.838 893.357 668.439 893.187 667.912 893.034C667.385 892.881 666.696 892.719 665.846 892.549C662.99 891.971 660.993 891.113 659.854 889.974C658.715 888.835 658.145 887.262 658.145 885.256C658.145 883.794 658.417 882.477 658.961 881.304C659.505 880.131 660.287 879.136 661.307 878.32C662.327 877.504 663.56 876.875 665.005 876.433C666.45 875.991 668.056 875.77 669.824 875.77C672.714 875.77 675.519 876.331 678.239 877.453L675.128 883.471Z" fill-rule="evenodd"/>
<path clip-path="url(#TextBounds)" d="M692.978 860.572L692.978 886.174L702.668 876.739L715.316 876.739L702.209 888.826L716.081 902.902L703.127 902.902L692.978 892.243L692.978 902.902L683.747 902.902L683.747 860.572L692.978 860.572Z" fill-rule="evenodd"/>
<path clip-path="url(#TextBounds)" d="M729.647 884.44L729.647 902.902L720.416 902.902L720.416 884.44L717.356 884.44L717.356 876.739L720.416 876.739L720.416 868.885L729.647 868.885L729.647 876.739L734.9 876.739L734.9 884.44L729.647 884.44Z" fill-rule="evenodd"/>
<path clip-path="url(#TextBounds)" d="M747.548 889.693C747.548 890.577 747.71 891.385 748.033 892.116C748.356 892.847 748.781 893.484 749.308 894.028C749.835 894.572 750.464 894.997 751.195 895.303C751.926 895.609 752.699 895.762 753.515 895.762C754.331 895.762 755.105 895.609 755.836 895.303C756.567 894.997 757.196 894.572 757.723 894.028C758.25 893.484 758.675 892.847 758.998 892.116C759.321 891.385 759.482 890.594 759.482 889.744C759.482 888.928 759.321 888.155 758.998 887.424C758.675 886.693 758.25 886.055 757.723 885.511C757.196 884.967 756.567 884.542 755.836 884.236C755.105 883.93 754.331 883.777 753.515 883.777C752.699 883.777 751.926 883.93 751.195 884.236C750.464 884.542 749.835 884.967 749.308 885.511C748.781 886.055 748.356 886.684 748.033 887.398C747.71 888.112 747.548 888.877 747.548 889.693ZM737.807 889.591C737.807 887.653 738.198 885.843 738.98 884.16C739.762 882.477 740.85 881.015 742.244 879.774C743.638 878.533 745.296 877.555 747.217 876.841C749.138 876.127 751.237 875.77 753.515 875.77C755.759 875.77 757.842 876.119 759.763 876.816C761.684 877.513 763.35 878.482 764.761 879.723C766.172 880.964 767.268 882.443 768.05 884.16C768.832 885.877 769.223 887.772 769.223 889.846C769.223 891.92 768.824 893.816 768.025 895.533C767.226 897.25 766.129 898.729 764.735 899.97C763.341 901.211 761.667 902.171 759.712 902.851C757.757 903.531 755.64 903.871 753.362 903.871C751.118 903.871 749.044 903.531 747.14 902.851C745.236 902.171 743.596 901.202 742.219 899.944C740.842 898.686 739.762 897.182 738.98 895.431C738.198 893.68 737.807 891.733 737.807 889.591Z" fill-rule="evenodd"/>
<path clip-path="url(#TextBounds)" d="M795.386 889.897C795.386 889.081 795.242 888.308 794.953 887.577C794.664 886.846 794.247 886.208 793.703 885.664C793.159 885.12 792.522 884.687 791.791 884.364C791.06 884.041 790.269 883.879 789.419 883.879C788.603 883.879 787.838 884.032 787.124 884.338C786.41 884.644 785.79 885.069 785.263 885.613C784.736 886.157 784.311 886.795 783.988 887.526C783.665 888.257 783.503 889.03 783.503 889.846C783.503 890.662 783.656 891.427 783.962 892.141C784.268 892.855 784.693 893.476 785.237 894.003C785.781 894.53 786.419 894.955 787.15 895.278C787.881 895.601 788.654 895.762 789.47 895.762C790.286 895.762 791.051 895.609 791.765 895.303C792.479 894.997 793.1 894.572 793.627 894.028C794.154 893.484 794.579 892.855 794.902 892.141C795.225 891.427 795.386 890.679 795.386 889.897ZM783.758 915.958L774.527 915.958L774.527 876.739L783.758 876.739L783.758 879.646C785.73 877.164 788.416 875.923 791.816 875.923C793.686 875.923 795.429 876.289 797.044 877.02C798.659 877.751 800.061 878.745 801.251 880.003C802.441 881.261 803.368 882.74 804.031 884.44C804.694 886.14 805.025 887.959 805.025 889.897C805.025 891.835 804.694 893.637 804.031 895.303C803.368 896.969 802.45 898.431 801.277 899.689C800.104 900.947 798.718 901.933 797.12 902.647C795.522 903.361 793.788 903.718 791.918 903.718C788.654 903.718 785.934 902.596 783.758 900.352L783.758 915.958Z" fill-rule="evenodd"/>
</g>
</g>
</svg>
